<svg xmlns="http://www.w3.org/2000/svg" viewBox="0 0 12 12"><title>close</title><g id="e32a9db8-b457-49b2-988d-074caef238ef" data-name="Layer 2"><g id="f0fdbc73-2a0b-4b32-b3d1-666a60ec9369" data-name="Layer 1"><path d="M11.82,10.991l-.829.829a.633.633,0,0,1-.884,0l-4.1-4.113L1.893,11.82a.633.633,0,0,1-.884,0L.18,10.991a.633.633,0,0,1,0-.884l4.113-4.1L.18,1.893a.657.657,0,0,1-.175-.448A.65.65,0,0,1,.18,1.009L1.009.18a.655.655,0,0,1,.884,0L6.005,4.293,10.107.18a.633.633,0,0,1,.884,0l.829.829a.633.633,0,0,1,0,.884L7.707,6.005l4.113,4.1A.633.633,0,0,1,11.82,10.991Z" fill="#5cb85c"/><path d="M11.82,10.107a.633.633,0,0,1,0,.884l-.829.829a.633.633,0,0,1-.884,0l-4.1-4.113L1.893,11.82a.633.633,0,0,1-.884,0L.18,10.991a.633.633,0,0,1,0-.884l4.113-4.1L.18,1.893a.657.657,0,0,1-.175-.448A.65.65,0,0,1,.18,1.009L1.009.18a.655.655,0,0,1,.884,0L6.005,4.293,10.107.18a.633.633,0,0,1,.884,0l.829.829a.633.633,0,0,1,0,.884L7.707,6.005Z" fill="#5cb85c"/></g></g></svg>