<svg xmlns="http://www.w3.org/2000/svg" viewBox="0 0 12.001 12"><title>close-red</title><g id="f3d93121-3907-4da2-bd61-f9762a6e6a32" data-name="Layer 2"><g id="be63cb36-4d83-495f-a00c-ef54709e1377" data-name="Layer 1"><g id="a7ba6b2c-1e17-4446-9c74-7d8f6f6273de" data-name="e32a9db8-b457-49b2-988d-074caef238ef"><g id="b557aa9e-f46f-47bc-bd10-31638a37e556" data-name="f0fdbc73-2a0b-4b32-b3d1-666a60ec9369"><path d="M11.82,10.991l-.829.829a.633.633,0,0,1-.884,0l-4.1-4.113L1.893,11.82a.633.633,0,0,1-.884,0L.18,10.991a.633.633,0,0,1,0-.884l4.113-4.1L.18,1.893a.646.646,0,0,1,0-.884L1.009.18a.655.655,0,0,1,.884,0L6.005,4.293,10.107.18a.633.633,0,0,1,.884,0l.829.829a.633.633,0,0,1,0,.884L7.707,6.005l4.113,4.1A.633.633,0,0,1,11.82,10.991Z" fill="#c94848"/><path d="M11.82,10.107a.633.633,0,0,1,0,.884l-.829.829a.633.633,0,0,1-.884,0l-4.1-4.113L1.893,11.82a.633.633,0,0,1-.884,0L.18,10.991a.633.633,0,0,1,0-.884l4.113-4.1L.18,1.893a.646.646,0,0,1,0-.884L1.009.18a.655.655,0,0,1,.884,0L6.005,4.293,10.107.18a.633.633,0,0,1,.884,0l.829.829a.633.633,0,0,1,0,.884L7.707,6.005Z" fill="#c94848"/></g></g></g></g></svg>