<svg xmlns="http://www.w3.org/2000/svg" width="24" height="16" viewBox="0 0 255.72808 190.42856"><defs><style>.a{fill:#FFFFFF;}.b{fill:#FFFFFF;}</style></defs><title>Unify Color Logo</title><path class="a" d="M178.84594,110.8107l-59.21341,59.21358c-13.52455,13.52437-30.16542,20.40428-49.45244,20.40428S34.252,183.54865,20.72764,170.02428C6.968,156.26465,0,139.50607,0,120.24847,0,100.96144,6.8503,84.3204,20.40428,70.796L79.58843,11.58244l32.66443,32.635L53.03927,103.431a23.95877,23.95877,0,0,0,0,33.60529c4.469,4.49843,9.73172,6.586,16.4939,6.586a22.69254,22.69254,0,0,0,16.81745-6.90933l59.18415-59.18416Z"/><path class="b" d="M255.728,70.18009a67.60378,67.60378,0,0,1-20.37484,49.45244l-59.21359,59.18416-32.635-32.63518,59.18416-59.18416a22.55556,22.55556,0,0,0,6.8799-16.81726,22.55624,22.55624,0,0,0-6.8799-16.81745c-4.469-4.46882-9.70228-6.55636-16.4939-6.55636a22.55542,22.55542,0,0,0-16.788,6.87991l-59.21359,59.2134L76.70565,79.76483l59.3898-59.36055C149.64943,6.85047,166.2903,0,185.5479,0c19.287,0,35.92807,6.85047,49.45244,20.40428C248.76,34.16391,255.75741,50.89306,255.728,70.18009Z"/></svg>