<svg width="14" height="20" fill="none" xmlns="http://www.w3.org/2000/svg"><path d="M13.561 4.955h-2.68V3.837c0-.504-.098-1.003-.288-1.469a3.84 3.84 0 00-.817-1.244A3.768 3.768 0 008.552.292a3.716 3.716 0 00-2.887 0 3.768 3.768 0 00-1.223.832 3.853 3.853 0 00-1.105 2.713v1.118H.435a.432.432 0 00-.307.13.447.447 0 00-.128.312v11.837c0 .586.23 1.148.637 1.563.407.414.96.647 1.536.647h9.654c.577 0 1.13-.233 1.536-.647A2.23 2.23 0 0014 17.234V5.397a.45.45 0 00-.13-.313.436.436 0 00-.309-.129zm-9.36-1.123c0-.783.307-1.534.85-2.088A2.878 2.878 0 017.105.88c.77 0 1.508.31 2.053.864.544.554.85 1.305.85 2.088v1.119H4.202V3.832zm8.926 13.402a1.342 1.342 0 01-.383.937 1.296 1.296 0 01-.92.39H2.167a1.296 1.296 0 01-.92-.39 1.342 1.342 0 01-.383-.937V5.84h2.468v1.8c0 .116.045.229.127.312a.43.43 0 00.614 0 .446.446 0 00.128-.313V5.84h5.81v1.8c0 .116.045.229.126.312a.43.43 0 00.615 0 .446.446 0 00.127-.313V5.84h2.247v11.395z" fill="#151515"/></svg>