<svg version="1.1" id="Слой_1" xmlns="http://www.w3.org/2000/svg" x="0" y="0" viewBox="0 0 1000 1000" xml:space="preserve"><style>.st1{fill:#fe6f61}</style><path d="M281.49 629.28c7 0 11.63 5.38 11.63 12.38 0 7-4.63 12.38-11.63 12.38-7.03 0-11.63-5.38-11.63-12.38 0-7 4.6-12.38 11.63-12.38zm0 1.86c-5.81 0-9.47 4.45-9.47 10.51 0 6.03 3.66 10.51 9.47 10.51 5.74 0 9.47-4.48 9.47-10.51 0-6.06-3.73-10.51-9.47-10.51zm31.19 12.56h-5.27v9.9h-2.05v-23.93h8.94c4.13 0 7.28 2.62 7.28 7 0 4.34-3.09 6.75-6.64 6.89l6.93 10.05h-2.48l-6.71-9.91zm1.43-12.16h-6.71v10.3h6.71c3.16 0 5.31-2.15 5.31-5.17s-2.15-5.13-5.31-5.13zm34.75 16.18h-12.74l-2.4 5.88h-2.3l9.8-23.93h2.55l9.8 23.93h-2.3l-2.41-5.88zm-12.1-1.87h11.45l-5.74-14.18-5.71 14.18zm29.54-12.91v20.67h-2.05v-23.93h2.08l15 20.38v-20.38h2.05v23.93h-2.01l-15.07-20.67zm41.45-3.66c3.95 0 6.82 1.58 9.01 4.09l-1.54 1.11c-1.69-2.01-4.41-3.34-7.46-3.34-5.63 0-9.98 4.27-9.98 10.51 0 6.17 4.34 10.55 9.98 10.55 3.19 0 5.71-1.58 7.03-2.91v-5.71h-9.08v-1.87h11.12v8.36c-2.15 2.37-5.31 3.98-9.08 3.98-6.75 0-12.13-5.02-12.13-12.42s5.38-12.35 12.13-12.35zm21.47.39h15.18v1.86h-13.13v8.86h12.88v1.87h-12.88v9.47h13.13v1.87h-15.18v-23.93zm42.99 11.99c0-7.36 5.35-12.38 12.06-12.38 3.87 0 6.75 1.69 8.79 4.23l-1.72 1.11c-1.51-2.08-4.13-3.48-7.07-3.48-5.56 0-9.9 4.27-9.9 10.51 0 6.17 4.34 10.51 9.9 10.51 2.94 0 5.56-1.4 7.07-3.48l1.72 1.08c-2.12 2.62-4.92 4.27-8.79 4.27-6.71.01-12.06-5.02-12.06-12.37zm42.93-12.38c7 0 11.63 5.38 11.63 12.38 0 7-4.63 12.38-11.63 12.38-7.03 0-11.63-5.38-11.63-12.38 0-7 4.59-12.38 11.63-12.38zm0 1.86c-5.81 0-9.47 4.45-9.47 10.51 0 6.03 3.66 10.51 9.47 10.51 5.74 0 9.47-4.48 9.47-10.51 0-6.06-3.73-10.51-9.47-10.51zm23.86-1.47h2.08v14.71c0 4.84 2.55 7.79 7.25 7.79s7.25-2.94 7.25-7.79v-14.71h2.08v14.75c0 5.92-3.16 9.62-9.33 9.62-6.14 0-9.33-3.73-9.33-9.62v-14.75zm33.85 3.27v20.67h-2.05v-23.93h2.08l15 20.38v-20.38h2.05v23.93h-2.01l-15.07-20.67zm36.32-1.4h-7.82v-1.86h17.73v1.86h-7.82v22.07h-2.08v-22.07zm28.39 11.84l-9.51-13.71h2.48l8.07 11.77 8.07-11.77h2.48l-9.51 13.71v10.23h-2.08v-10.23zm59.07-11.02l-8.72 21.24h-.79l-8.76-21.24v21.24h-2.05v-23.93h3.05l8.15 19.84 8.11-19.84h3.09v23.93h-2.08v-21.24zm15.19-2.69h7.64c7.43 0 12.09 5.42 12.09 11.99 0 6.64-4.66 11.95-12.09 11.95h-7.64v-23.94zm7.64 22.07c6.32 0 9.94-4.49 9.94-10.08 0-5.6-3.59-10.12-9.94-10.12h-5.6v20.2h5.6z" fill="#d6bea5"/><path class="st1" d="M378.67 382.12v-4.66h-4.66c-21.49 0-38.98 17.49-38.98 38.98v4.66h4.66c21.49 0 38.98-17.49 38.98-38.98zm342.67 74.83c-6.81-10.45-16.25-17.79-28.34-22.03-8.42-2.99-21.94-4.49-40.58-4.49H624.8l1.88 12.2h20.65c17.91 0 30.76 1.19 38.55 3.56 10.39 3.16 18.5 9 24.32 17.52s8.73 18.79 8.73 30.81c0 11.46-2.68 21.15-8.05 29.08-5.37 7.93-12.74 13.42-22.11 16.46-6.66 2.14-18.61 3.22-35.84 3.22h-14.4v-.01h-2.27l1.82 11.78h34.47c8.68 0 17.35-1.45 25.39-4.71a53.21 53.21 0 004.52-2.07c8.61-4.52 15.62-11.52 21.01-21.01 5.39-9.49 8.09-20.48 8.09-32.96-.01-14.45-3.41-26.9-10.22-37.35zm-120.92-25.58l-47.68 102.97-47.68-102.97h-4.57l-19.21 126.82h12.52l12.63-91.39 45.18 91.39h2.26l45.18-91.39 12.63 91.39h12.52l-19.21-126.82zm-172.29 15.37c8.47-4.77 17.68-7.16 27.62-7.16 9.09 0 17.44 1.82 25.04 5.46.52.25 1.03.53 1.54.8l1.89-12.94c-8.64-3.72-18.17-5.61-28.63-5.61-19.26 0-35.29 6.23-48.08 18.68-5.43 5.29-9.7 11.09-12.83 17.42-3.09-6.24-7.27-11.98-12.56-17.21-12.72-12.6-28.51-18.89-47.39-18.89-11.64 0-22.47 2.9-32.47 8.68-10 5.79-17.9 13.8-23.7 24.02-5.79 10.22-8.69 21.32-8.69 33.3 0 17.96 6.36 33.27 19.08 45.92 12.72 12.65 28.32 18.98 46.8 18.98 18.26 0 33.73-6.35 46.42-19.06 5.26-5.27 9.43-11.01 12.51-17.23 2.45 5.18 5.61 10.02 9.49 14.52 12.6 14.52 29.8 21.78 51.6 21.78 3.54 0 6.97-.24 10.29-.67l1.78-12.22c-3.63.71-7.39 1.11-11.31 1.11-15.87 0-29.02-5.08-39.44-15.25-10.42-10.17-15.63-22.85-15.63-38.04 0-10.05 2.33-19.11 6.99-27.16 4.64-8.05 11.2-14.46 19.68-19.23zm-46.74 73.05c-4.61 8.14-11.03 14.56-19.26 19.25-8.23 4.69-17.19 7.04-26.86 7.04-14.48 0-26.86-5.1-37.13-15.31-10.27-10.2-15.4-22.71-15.4-37.52 0-10.01 2.32-19.08 6.96-27.22 4.64-8.14 11.09-14.61 19.35-19.42 8.26-4.81 17-7.21 26.22-7.21 9.39 0 18.27 2.4 26.65 7.21 8.37 4.8 14.86 11.21 19.48 19.2 4.61 8 6.92 16.95 6.92 26.84-.01 9.96-2.32 19-6.93 27.14z"/><path class="st1" d="M819 612.35H182.42v-263H819v263zm-628.36-8.22h620.14V357.57H190.64v246.56z"/></svg>