<?xml version="1.0" encoding="iso-8859-1"?>
<!-- Generator: Adobe Illustrator 19.0.0, SVG Export Plug-In . SVG Version: 6.00 Build 0)  -->
<svg xmlns:xlink="http://www.w3.org/1999/xlink" version="1.1" id="Capa_1" xmlns="http://www.w3.org/2000/svg" x="0px" y="0px"
     viewBox="0 0 368 368" style="enable-background:new 0 0 368 368;" xml:space="preserve">
<g>
	<g>
		<path d="M360,96H240V24c0-13.232-10.768-24-24-24h-64c-13.232,0-24,10.768-24,24v72H8c-4.416,0-8,3.584-8,8v48
			c0,4.416,3.584,8,8,8h24v200c0,4.416,3.584,8,8,8h288c4.424,0,8-3.584,8-8V160h24c4.424,0,8-3.584,8-8v-48
			C368,99.584,364.424,96,360,96z M144,24c0-4.408,3.584-8,8-8h64c4.416,0,8,3.584,8,8v72h-80V24z M320,192h-40
			c-4.424,0-8,3.584-8,8c0,4.416,3.576,8,8,8h40v144H48V208h184c4.424,0,8-3.584,8-8c0-4.416-3.576-8-8-8H48v-32h272V192z M352,144
			H16v-32h336V144z"/>
	</g>
</g>
    <g>
</g>
    <g>
</g>
    <g>
</g>
    <g>
</g>
    <g>
</g>
    <g>
</g>
    <g>
</g>
    <g>
</g>
    <g>
</g>
    <g>
</g>
    <g>
</g>
    <g>
</g>
    <g>
</g>
    <g>
</g>
    <g>
</g>
</svg>
