<svg width="214" height="116" fill="none" xmlns="http://www.w3.org/2000/svg"><path d="M5.441 103.864c3.229 0 5.365 2.491 5.365 5.731 0 3.241-2.136 5.731-5.365 5.731-3.243 0-5.365-2.49-5.365-5.731 0-3.24 2.122-5.731 5.365-5.731zm0 .861c-2.68 0-4.368 2.06-4.368 4.866 0 2.791 1.688 4.865 4.368 4.865 2.648 0 4.368-2.074 4.368-4.865 0-2.806-1.72-4.866-4.368-4.866zm14.387 5.815h-2.43v4.583h-.946v-11.078h4.124c1.905 0 3.358 1.213 3.358 3.24 0 2.009-1.426 3.125-3.063 3.19l3.197 4.652h-1.145l-3.095-4.587zm.66-5.63h-3.095v4.769h3.095c1.458 0 2.45-.996 2.45-2.394 0-1.398-.992-2.375-2.45-2.375zm16.029 7.491H30.64l-1.107 2.722h-1.06l4.52-11.078h1.176l4.52 11.078h-1.06l-1.112-2.722zm-5.581-.866h5.281l-2.647-6.564-2.634 6.564zm13.626-5.976v9.568h-.946v-11.078h.96l6.919 9.435v-9.435h.945v11.078h-.927l-6.951-9.568zm19.12-1.695c1.822 0 3.146.732 4.156 1.894l-.71.513c-.78-.93-2.035-1.546-3.442-1.546-2.597 0-4.603 1.977-4.603 4.866 0 2.856 2.002 4.884 4.603 4.884 1.472 0 2.634-.732 3.243-1.347v-2.644h-4.188v-.865h5.129v3.87a5.584 5.584 0 0 1-4.188 1.842c-3.114 0-5.596-2.324-5.596-5.75 0-3.425 2.482-5.717 5.596-5.717zm9.903.181h7.002v.861h-6.056v4.101h5.941v.866h-5.941v4.384h6.056v.866h-7.002v-11.078zm19.83 5.55c0-3.407 2.468-5.731 5.563-5.731 1.785 0 3.114.783 4.055 1.958l-.794.514c-.696-.963-1.905-1.611-3.26-1.611-2.565 0-4.567 1.977-4.567 4.866 0 2.856 2.002 4.865 4.566 4.865 1.356 0 2.565-.648 3.261-1.611l.794.5c-.978 1.213-2.27 1.977-4.055 1.977-3.095.005-5.563-2.324-5.563-5.727zm19.803-5.731c3.229 0 5.364 2.491 5.364 5.731 0 3.241-2.135 5.731-5.364 5.731-3.243 0-5.365-2.49-5.365-5.731 0-3.24 2.117-5.731 5.365-5.731zm0 .861c-2.68 0-4.368 2.06-4.368 4.866 0 2.791 1.688 4.865 4.368 4.865 2.647 0 4.368-2.074 4.368-4.865 0-2.806-1.721-4.866-4.368-4.866zm11.006-.68h.959v6.81c0 2.24 1.176 3.606 3.344 3.606s3.345-1.361 3.345-3.606v-6.81h.959v6.828c0 2.741-1.457 4.453-4.304 4.453-2.832 0-4.303-1.726-4.303-4.453v-6.828zm15.614 1.514v9.568h-.946v-11.078h.96l6.919 9.435v-9.435h.945v11.078h-.927l-6.951-9.568zm16.753-.649h-3.607v-.861h8.178v.861h-3.607v10.217h-.959V104.91h-.005zm13.096 5.482l-4.387-6.347h1.144l3.723 5.449 3.722-5.449h1.144l-4.387 6.347v4.735h-.959v-4.735zm27.247-5.102l-4.022 9.833h-.365l-4.04-9.833v9.833h-.946v-11.078h1.407l3.759 9.184 3.741-9.184h1.426v11.078h-.96v-9.833zm7.007-1.245h3.524c3.427 0 5.577 2.509 5.577 5.55 0 3.074-2.15 5.532-5.577 5.532h-3.524v-11.082zm3.524 10.217c2.915 0 4.585-2.079 4.585-4.667 0-2.592-1.656-4.685-4.585-4.685h-2.583v9.352h2.583z" fill="#D6BEA5"/><path d="M50.268 2.446V.289h-2.15c-9.913 0-17.98 8.096-17.98 18.045v2.157h2.15c9.912 0 17.98-8.097 17.98-18.045zm158.064 34.641c-3.141-4.838-7.495-8.236-13.072-10.198-3.884-1.384-10.121-2.079-18.719-2.079h-12.74l.867 5.648h9.525c8.262 0 14.189.55 17.782 1.648 4.793 1.463 8.534 4.166 11.219 8.11 2.684 3.945 4.027 8.699 4.027 14.263 0 5.306-1.237 9.791-3.714 13.463-2.477 3.67-5.876 6.212-10.198 7.62-3.073.99-8.585 1.49-16.533 1.49h-6.642v-.005h-1.047l.84 5.454h15.9c4.004 0 8.003-.671 11.711-2.18a24.482 24.482 0 0 0 2.085-.959c3.972-2.092 7.205-5.333 9.692-9.726 2.486-4.393 3.731-9.481 3.731-15.258-.004-6.69-1.573-12.453-4.714-17.29zm-55.777-11.842l-21.994 47.668-21.993-47.668h-2.108l-8.861 58.71h5.775l5.826-42.308 20.84 42.307h1.043l20.84-42.307 5.826 42.307h5.775l-8.861-58.709h-2.108zM73.082 32.36c3.907-2.208 8.156-3.314 12.74-3.314 4.194 0 8.045.842 11.55 2.527.24.116.476.246.711.37l.872-5.99c-3.985-1.722-8.381-2.597-13.206-2.597-8.884 0-16.279 2.884-22.178 8.648-2.505 2.449-4.475 5.134-5.918 8.064-1.426-2.888-3.354-5.546-5.794-7.967-5.867-5.833-13.15-8.745-21.86-8.745-5.369 0-10.365 1.343-14.977 4.019-4.613 2.68-8.257 6.388-10.932 11.12C1.419 43.224.08 48.364.08 53.91c0 8.314 2.934 15.402 8.801 21.258 5.868 5.856 13.063 8.786 21.588 8.786 8.423 0 15.559-2.94 21.412-8.823 2.426-2.44 4.35-5.097 5.77-7.977a29.734 29.734 0 0 0 4.378 6.722c5.812 6.722 13.746 10.083 23.802 10.083 1.633 0 3.215-.111 4.746-.31l.821-5.657a26.983 26.983 0 0 1-5.217.514c-7.32 0-13.386-2.352-18.192-7.06-4.807-4.708-7.21-10.578-7.21-17.61 0-4.652 1.075-8.847 3.224-12.573 2.14-3.727 5.167-6.694 9.078-8.902zm-21.56 33.818c-2.126 3.768-5.088 6.74-8.884 8.911-3.796 2.171-7.93 3.26-12.39 3.26-6.679 0-12.39-2.362-17.127-7.088-4.737-4.722-7.103-10.513-7.103-17.37 0-4.633 1.07-8.832 3.21-12.6 2.14-3.769 5.116-6.764 8.926-8.99 3.81-2.227 7.841-3.338 12.094-3.338 4.332 0 8.428 1.11 12.293 3.337 3.861 2.222 6.855 5.19 8.986 8.889 2.126 3.703 3.192 7.846 3.192 12.425-.005 4.61-1.07 8.795-3.197 12.564z" fill="#FE6F61"/></svg>